Coordinates
version=1
nRows=4
nColumns=63
inDegrees=yes

Units are S.I. units (second, meters, Newtons, ...)
If the header above contains a line with 'inDegrees', this indicates whether rotational values are in degrees (yes) or radians (no).

endheader
time	pelvis_tilt	pelvis_list	pelvis_rotation	pelvis_tx	pelvis_ty	pelvis_tz	hip_flexion_r	hip_adduction_r	hip_rotation_r	knee_angle_r	knee_angle_r_beta	ankle_angle_r	subtalar_angle_r	mtp_angle_r	hip_flexion_l	hip_adduction_l	hip_rotation_l	knee_angle_l	knee_angle_l_beta	ankle_angle_l	subtalar_angle_l	mtp_angle_l	L5_S1_Flex_Ext	L5_S1_Lat_Bending	L5_S1_axial_rotation	L4_L5_Flex_Ext	L4_L5_Lat_Bending	L4_L5_axial_rotation	L3_L4_Flex_Ext	L3_L4_Lat_Bending	L3_L4_axial_rotation	L2_L3_Flex_Ext	L2_L3_Lat_Bending	L2_L3_axial_rotation	L1_L2_Flex_Ext	L1_L2_Lat_Bending	L1_L2_axial_rotation	L1_T12_Flex_Ext	L1_T12_Lat_Bending	L1_T12_axial_rotation	Abs_r3	Abs_r2	Abs_r1	Abs_t1	Abs_t2	neck_flexion	neck_bending	neck_rotation	arm_flex_r	arm_add_r	arm_rot_r	elbow_flex_r	pro_sup_r	wrist_flex_r	wrist_dev_r	arm_flex_l	arm_add_l	arm_rot_l	elbow_flex_l	pro_sup_l	wrist_flex_l	wrist_dev_l
      1.23728814	      0.98635480	     -3.03292960	    108.56014654	      0.22492863	      0.86301354	      0.64662049	     -4.26715383	      2.55187279	     -8.15804645	      2.66090573	      0.04644157	     10.79692471	     -7.98930187	      0.00000000	      7.78324166	      2.73403002	     15.83028197	     22.70593092	      0.39629325	     12.89415329	    -16.12762163	      0.00000000	     -0.15911270	      0.02335783	     -2.22075051	     -0.29548819	      0.03106591	     -2.35954742	     -0.26140625	      0.05679222	     -2.35954742	     -0.18184990	      0.05679222	     -1.94315670	     -0.14775205	      0.04763128	     -1.80435979	     -0.09091700	      0.03618127	     -1.66556288	     -1.13652610	      0.26422839	    -12.35114812	      0.00000000	      0.00000000	     16.66789354	     -0.87911509	     -0.46505264	     13.19277634	    -12.89069374	     88.27581533	     19.06404918	     78.74204382	    -13.43697126	     -2.01263433	     -2.65669905	    -18.60356963	     42.85085944	     33.13313865	     88.22069099	    -17.32135276	     -0.11793919
      1.25423729	      1.04909134	     -3.03684102	    108.75300108	      0.22495336	      0.86273417	      0.64706261	     -4.15934603	      2.64215359	     -8.31915226	      2.81429148	      0.04911865	     10.50358255	     -8.45385298	      0.00000000	      8.19713457	      2.83308425	     16.40220498	     23.41008292	      0.40858303	     13.03950481	    -16.45202314	      0.00000000	     -0.17129947	      0.02481100	     -2.21305164	     -0.31812025	      0.03299862	     -2.35136737	     -0.28142790	      0.06032545	     -2.35136737	     -0.19577816	      0.06032545	     -1.93642019	     -0.15906869	      0.05059458	     -1.79810446	     -0.09788052	      0.03843223	     -1.65978873	     -1.22357498	      0.28066694	    -12.30832932	      0.00000000	      0.00000000	     16.84782390	     -0.65872452	      0.21115955	     12.86485236	    -12.99466636	     86.55146882	     19.17384220	     76.62007671	    -13.02833855	     -2.18715190	     -2.41838450	    -18.30476981	     43.13703871	     31.79182813	     87.78905674	    -16.76509365	     -1.34011833
      1.27118644	      1.03498004	     -2.98346433	    108.89878443	      0.22492538	      0.86272971	      0.64686238	     -4.14055913	      2.66341409	     -8.76521871	      2.98952692	      0.05217709	     10.58521942	     -8.44583685	      0.00000000	      8.35335963	      2.96504852	     16.99559902	     23.81167343	      0.41559210	     13.25624263	    -16.79957980	      0.00000000	     -0.17775773	      0.01823618	     -2.20753033	     -0.33011388	      0.02425412	     -2.34550097	     -0.29203817	      0.04433944	     -2.34550097	     -0.20315931	      0.04433944	     -1.93158904	     -0.16506583	      0.03718722	     -1.79361839	     -0.10157077	      0.02824784	     -1.65564775	     -1.26970567	      0.20629130	    -12.27762143	      0.00000000	      0.00000000	     17.05645452	     -0.44862347	      0.96938722	     12.71273539	    -12.95478924	     86.11903346	     19.07518928	     74.25894778	    -12.53641072	     -2.42970705	     -2.13468516	    -18.09261172	     44.17270367	     30.46698256	     87.04872541	    -16.80543884	     -2.62463437
      1.28813559	      1.06854286	     -2.94820514	    108.91651446	      0.22512624	      0.86269921	      0.64651740	     -4.00055561	      2.70898383	     -8.91000108	      3.28132098	      0.05726985	     10.91314665	     -8.63212338	      0.00000000	      8.47817320	      2.99928051	     17.36801302	     24.06291433	      0.41997708	     13.68849582	    -16.96868205	      0.00000000	     -0.17608860	      0.01745637	     -2.22110414	     -0.32701415	      0.02321697	     -2.35992315	     -0.28929597	      0.04244341	     -2.35992315	     -0.20125167	      0.04244341	     -1.94346613	     -0.16351588	      0.03559702	     -1.80464712	     -0.10061703	      0.02703991	     -1.66582811	     -1.25778329	      0.19746991	    -12.35311491	      0.00000000	      0.00000000	     17.44336534	     -0.06038641	      2.35288088	     12.72162296	    -12.92468440	     85.76272086	     19.13684985	     73.77091449	    -12.23860474	     -2.31825873	     -2.07348162	    -17.93978461	     44.76906483	     29.53271691	     86.48999495	    -16.82036322	     -3.58218585
